<?xml version="1.0" encoding="UTF-8" standalone="no"?>
<svg width="463px" height="511px" viewBox="0 0 463 511" version="1.1" xmlns="http://www.w3.org/2000/svg" xmlns:xlink="http://www.w3.org/1999/xlink">
    <!-- Generator: Sketch 39 (31667) - http://www.bohemiancoding.com/sketch -->
    <title>brain</title>
    <desc>Created with Sketch.</desc>
    <defs></defs>
    <g id="Symbolz" stroke="none" stroke-width="1" fill="none" fill-rule="evenodd">
        <g id="Artboard-1" transform="translate(-2853.000000, -4568.000000)" fill="#000000">
            <g id="brain" transform="translate(2853.000000, 4568.000000)">
                <path d="M463,311.5 C463,288.099 450.292,266.936 430.106,255.858 C430.7,253.123 431,250.33 431,247.5 C431,241.693 429.701,235.979 427.211,230.724 C434.939,219.032 439,205.571 439,191.5 C439,167.327 426.766,144.904 406.734,131.74 C406.913,130.298 407,128.898 407,127.5 C407,115.044 400.971,103.328 390.998,95.92 C390.999,95.78 391,95.641 391,95.5 C391,66.63 371.346,41.398 343.751,34.111 C332.851,13.271 311.17,0 287.5,0 C263.291,0 242.21,13.622 231.5,33.599 C220.79,13.622 199.709,0 175.5,0 C151.83,0 130.149,13.271 119.249,34.111 C91.654,41.398 72,66.63 72,95.5 C72,95.641 72.001,95.78 72.002,95.92 C62.029,103.328 56,115.044 56,127.5 C56,128.898 56.087,130.297 56.266,131.74 C36.234,144.904 24,167.327 24,191.5 C24,205.571 28.061,219.032 35.789,230.724 C33.299,235.979 32,241.693 32,247.5 C32,250.33 32.299,253.123 32.894,255.858 C12.708,266.936 0,288.099 0,311.5 C0,339.446 18.411,363.763 44.301,371.98 C41.467,378.102 40,384.705 40,391.5 C40,412.477 53.789,430.768 73.461,436.834 C79.655,465.771 105.462,487 135.5,487 C140.204,487 144.901,486.463 149.531,485.399 C157.612,500.957 173.701,511 191.5,511 C208.282,511 223.048,502.244 231.5,489.068 C239.952,502.244 254.718,511 271.5,511 C289.299,511 305.388,500.957 313.469,485.399 C318.099,486.463 322.796,487 327.5,487 C357.538,487 383.345,465.771 389.539,436.834 C409.211,430.768 423,412.477 423,391.5 C423,384.705 421.533,378.102 418.699,371.98 C444.589,363.763 463,339.446 463,311.5 L463,311.5 Z M191.5,496 C177.71,496 165.415,487.139 160.904,473.95 C160.258,472.063 158.888,470.511 157.096,469.637 C155.304,468.762 153.237,468.638 151.353,469.29 C146.16,471.088 140.826,472 135.499,472 C111.228,472 90.575,453.851 87.458,429.783 C87.041,426.566 84.604,423.982 81.417,423.378 C66.11,420.476 55,407.069 55,391.5 C55,385.383 56.781,379.467 60.167,374.211 C61.172,374.711 62.301,375 63.5,375 C75.316,375 86.614,371.807 96.434,365.826 C99.538,389.036 119.454,407 143.5,407 C169.691,407 191,385.691 191,359.5 C191,355.358 187.642,352 183.5,352 C179.358,352 176,355.358 176,359.5 C176,377.421 161.42,392 143.5,392 C125.58,392 111,377.421 111,359.5 C111,357.307 111.219,355.117 111.65,352.992 C112.203,350.266 111.198,347.59 109.252,345.874 C109.095,345.687 108.929,345.506 108.752,345.332 C105.793,342.433 101.044,342.481 98.146,345.44 C88.946,354.829 76.642,360 63.5,360 C62.346,360 61.257,360.268 60.281,360.734 C59.342,360.107 58.266,359.677 57.108,359.524 C33.102,356.358 15,335.713 15,311.5 C15,291.863 26.718,274.289 44.854,266.726 C46.69,265.96 48.146,264.497 48.903,262.657 C49.66,260.817 49.655,258.753 48.889,256.917 C47.636,253.911 47,250.743 47,247.5 C47,242.852 48.361,238.283 50.935,234.287 C52.645,231.632 52.509,228.189 50.594,225.678 C43.009,215.729 39,203.911 39,191.5 C39,170.939 50.205,151.979 68.242,142.019 C68.288,141.994 68.325,141.959 68.37,141.934 C76.643,137.398 85.993,135 95.499,135 C111.707,135 127.157,141.978 137.889,154.145 C139.371,155.826 141.439,156.684 143.516,156.684 C145.279,156.684 147.048,156.066 148.474,154.809 C151.58,152.069 151.878,147.33 149.138,144.223 C135.562,128.829 116.011,120 95.5,120 C87.185,120 78.963,121.457 71.215,124.25 C72.21,116.775 76.623,110.228 83.44,106.331 C85.955,104.893 87.418,102.136 87.196,99.248 C87.095,97.927 87,96.68 87,95.5 C87,72.475 103.362,52.48 125.905,47.958 C128.28,47.482 130.279,45.887 131.272,43.677 C139.095,26.257 156.456,15 175.5,15 C202.243,15 224,36.757 224,63.5 L224,209.61 C213.865,198.784 199.464,192 183.5,192 C174.239,192 165.246,194.275 157.192,198.621 C150.738,194.321 143.21,192 135.5,192 C131.358,192 128,195.358 128,199.5 C128,203.642 131.358,207 135.5,207 C141.393,207 147.146,209.232 151.699,213.286 C154.26,215.566 158.04,215.818 160.881,213.901 C167.572,209.387 175.393,207.001 183.5,207.001 C205.832,207.001 224,225.169 224,247.501 L224,463.501 C224,481.421 209.42,496 191.5,496 L191.5,496 Z M405.893,359.524 C404.734,359.677 403.659,360.107 402.72,360.734 C401.743,360.268 400.655,360 399.501,360 C386.358,360 374.054,354.829 364.855,345.44 C361.957,342.482 357.208,342.432 354.249,345.332 C354.072,345.505 353.907,345.686 353.751,345.872 C351.803,347.588 350.797,350.266 351.35,352.993 C351.782,355.118 352,357.307 352,359.501 C352,377.422 337.42,392.001 319.5,392.001 C315.358,392.001 312,395.359 312,399.501 C312,403.643 315.358,407.001 319.5,407.001 C343.546,407.001 363.462,389.037 366.566,365.827 C376.386,371.807 387.684,375.001 399.5,375.001 C400.699,375.001 401.828,374.712 402.833,374.212 C406.219,379.467 408,385.383 408,391.501 C408,407.07 396.89,420.477 381.582,423.378 C378.395,423.982 375.958,426.566 375.541,429.783 C372.424,453.851 351.771,472 327.5,472 C322.173,472 316.839,471.088 311.646,469.29 C309.762,468.638 307.695,468.762 305.903,469.637 C304.111,470.511 302.741,472.064 302.095,473.95 C297.585,487.139 285.29,496 271.5,496 C253.58,496 239,481.421 239,463.5 L239,309.39 C249.135,320.216 263.536,327 279.5,327 C288.761,327 297.754,324.725 305.808,320.379 C312.262,324.679 319.79,327 327.5,327 C331.642,327 335,323.642 335,319.5 C335,315.358 331.642,312 327.5,312 C321.607,312 315.854,309.768 311.301,305.714 C308.74,303.435 304.961,303.182 302.119,305.099 C295.428,309.613 287.607,311.999 279.5,311.999 C257.168,311.999 239,293.831 239,271.499 L239,150.458 C243.874,154.324 249.676,157.068 256.016,158.289 C256.006,158.692 256,159.097 256,159.5 C256,185.691 277.309,207 303.5,207 C329.691,207 351,185.691 351,159.5 C351,155.358 347.642,152 343.5,152 C339.358,152 336,155.358 336,159.5 C336,177.421 321.42,192 303.5,192 C285.58,192 271,177.421 271,159.5 C271,157.291 271.224,155.078 271.666,152.925 C272.125,150.684 271.537,148.355 270.068,146.601 C268.599,144.848 266.402,143.859 264.122,143.92 C263.732,143.931 263.398,143.964 263.135,143.997 C249.794,143.801 239,132.887 239,119.5 L239,63.5 C239,36.757 260.757,15 287.5,15 C306.544,15 323.905,26.257 331.729,43.678 C332.722,45.888 334.72,47.483 337.096,47.959 C359.638,52.48 376,72.475 376,95.5 C376,96.68 375.905,97.927 375.804,99.248 C375.583,102.136 377.045,104.894 379.56,106.331 C386.377,110.228 390.79,116.775 391.785,124.25 C384.036,121.457 375.814,120 367.5,120 C363.358,120 360,123.358 360,127.5 C360,131.642 363.358,135 367.5,135 C377.007,135 386.356,137.397 394.629,141.934 C394.674,141.96 394.712,141.994 394.757,142.019 C412.795,151.979 424,170.939 424,191.5 C424,203.911 419.991,215.729 412.406,225.678 C410.491,228.19 410.355,231.632 412.065,234.287 C414.639,238.283 416,242.851 416,247.5 C416,250.743 415.364,253.911 414.111,256.917 C413.345,258.753 413.34,260.817 414.097,262.657 C414.854,264.497 416.31,265.96 418.146,266.726 C436.282,274.289 448,291.863 448,311.5 C448,335.713 429.898,356.358 405.893,359.524 L405.893,359.524 Z" id="Shape"></path>
            </g>
        </g>
    </g>
</svg>