<?xml version='1.0' encoding='iso-8859-1'?>
<svg version="1.1" xmlns="http://www.w3.org/2000/svg" viewBox="0 0 511 511" xmlns:xlink="http://www.w3.org/1999/xlink" enable-background="new 0 0 511 511">
  <g>
    <path d="M327.5,0C226.318,0,144,82.318,144,183.5c0,47.617,18.235,91.053,48.084,123.7l-18.872,18.872   c-6.147-3.948-13.297-6.072-20.778-6.072c-10.302,0-19.987,4.011-27.27,11.295L11.296,445.164C4.012,452.448,0,462.133,0,472.434   s4.012,19.986,11.296,27.27C18.581,506.988,28.265,511,38.566,511s19.986-4.012,27.27-11.296l113.868-113.868   c7.284-7.284,11.296-16.969,11.296-27.27c0-8.025-2.445-15.671-6.965-22.104l18.615-18.615C235.425,348.325,279.32,367,327.5,367   C428.682,367,511,284.682,511,183.5S428.682,0,327.5,0z M169.098,341.902c4.451,4.451,6.902,10.369,6.902,16.664   c0,4.178-1.086,8.187-3.114,11.714l-32.166-32.167c3.527-2.028,7.536-3.113,11.714-3.113   C158.729,335,164.647,337.452,169.098,341.902z M61.467,482.861L28.14,449.533L129.533,348.14l33.327,33.327L61.467,482.861z    M21.903,489.097C17.452,484.646,15,478.729,15,472.434c0-4.178,1.086-8.187,3.114-11.714l32.167,32.167   C46.753,494.914,42.744,496,38.566,496C32.272,496,26.354,493.549,21.903,489.097z M327.5,352C234.589,352,159,276.411,159,183.5   S234.589,15,327.5,15S496,90.589,496,183.5S420.411,352,327.5,352z"/>
    <path d="M327.5,32C243.962,32,176,99.962,176,183.5S243.962,335,327.5,335S479,267.038,479,183.5S411.038,32,327.5,32z M327.5,320   C252.234,320,191,258.766,191,183.5S252.234,47,327.5,47S464,108.234,464,183.5S402.766,320,327.5,320z"/>
    <path d="m442.047,149.352c-11.549-38.794-41.605-68.851-80.4-80.399-3.968-1.181-8.146,1.079-9.328,5.049-1.182,3.97 1.079,8.146 5.049,9.328 33.923,10.098 60.205,36.38 70.303,70.303 0.97,3.256 3.953,5.362 7.186,5.362 0.708,0 1.429-0.101 2.143-0.314 3.969-1.183 6.229-5.359 5.047-9.329z"/>
  </g>
</svg>
