<?xml version='1.0' encoding='iso-8859-1'?>
<svg version="1.1" xmlns="http://www.w3.org/2000/svg" viewBox="0 0 511 511" xmlns:xlink="http://www.w3.org/1999/xlink" enable-background="new 0 0 511 511">
  <path d="M510.429,60.63c-1.161-2.802-3.896-4.63-6.929-4.63H455V7.5c0-3.033-1.827-5.768-4.63-6.929  c-2.801-1.16-6.028-0.519-8.173,1.626l-56,56C384.79,59.603,384,61.511,384,63.5v52.894L218.197,282.197  c-2.929,2.929-2.929,7.677,0,10.606c1.464,1.465,3.384,2.197,5.303,2.197s3.839-0.732,5.303-2.197l10.381-10.381  c0.526,1.627,0.815,3.334,0.815,5.078c0,9.098-7.402,16.5-16.5,16.5s-16.5-7.402-16.5-16.5c0-4.142-3.358-7.5-7.5-7.5  s-7.5,3.358-7.5,7.5c0,17.369,14.131,31.5,31.5,31.5s31.5-14.131,31.5-31.5c0-5.809-1.596-11.441-4.563-16.33l12.244-12.244  c6.038,8.259,9.32,18.202,9.32,28.574c0,26.743-21.757,48.5-48.5,48.5S175,314.243,175,287.5s21.757-48.5,48.5-48.5  c3.797,0,7.576,0.439,11.231,1.305c4.03,0.956,8.073-1.538,9.027-5.569c0.955-4.031-1.538-8.072-5.569-9.027  C233.402,224.575,228.46,224,223.5,224c-35.014,0-63.5,28.486-63.5,63.5s28.486,63.5,63.5,63.5s63.5-28.486,63.5-63.5  c0-14.368-4.803-28.115-13.614-39.28l23.438-23.438C311.8,242.257,320,264.317,320,287.5c0,53.21-43.29,96.5-96.5,96.5  S127,340.71,127,287.5s43.29-96.5,96.5-96.5c16.627,0,33.018,4.296,47.399,12.422c3.606,2.038,8.182,0.766,10.22-2.84  c2.038-3.606,0.766-8.182-2.84-10.219C261.65,180.967,242.708,176,223.5,176C162.019,176,112,226.019,112,287.5  S162.019,399,223.5,399S335,348.981,335,287.5c0-27.18-9.741-53.031-27.533-73.361l12.042-12.042  C340.511,225.648,352,255.696,352,287.5c0,70.855-57.645,128.5-128.5,128.5S95,358.355,95,287.5S152.645,159,223.5,159  c24.121,0,47.628,6.719,67.979,19.432c3.514,2.195,8.14,1.125,10.334-2.387c2.194-3.513,1.125-8.14-2.387-10.334  C276.689,151.507,250.434,144,223.5,144C144.374,144,80,208.374,80,287.5S144.374,431,223.5,431S367,366.626,367,287.5  c0-35.811-13.038-69.634-36.864-96.03l23.357-23.357C383.518,200.766,400,242.975,400,287.5c0,97.323-79.178,176.5-176.5,176.5  S47,384.823,47,287.5S126.178,111,223.5,111c35.713,0,70.11,10.609,99.474,30.68c3.421,2.338,8.087,1.459,10.424-1.959  c2.337-3.42,1.46-8.087-1.959-10.424C299.571,107.514,262.247,96,223.5,96C117.907,96,32,181.907,32,287.5S117.907,479,223.5,479  S415,393.094,415,287.5c0-48.521-18.04-94.51-50.891-130.003l12.024-12.024C412.204,184.181,432,234.356,432,287.5  C432,402.467,338.467,496,223.5,496S15,402.467,15,287.5S108.533,79,223.5,79c44.841,0,87.563,14.015,123.55,40.531  c3.335,2.458,8.03,1.746,10.487-1.589c2.457-3.335,1.746-8.03-1.589-10.487C317.365,79.027,271.566,64,223.5,64  c-59.699,0-115.825,23.248-158.039,65.462C23.248,171.675,0,227.801,0,287.5s23.248,115.825,65.461,158.038  C107.675,487.752,163.801,511,223.5,511s115.825-23.248,158.039-65.461C423.752,403.325,447,347.199,447,287.5  c0-57.148-21.352-111.096-60.252-152.642l7.858-7.858H447.5c1.989,0,3.897-0.79,5.303-2.197l56-56  C510.948,66.658,511.59,63.433,510.429,60.63z M444.394,112h-34.787l19.197-19.197c2.929-2.929,2.929-7.677,0-10.606  c-2.929-2.929-7.678-2.929-10.606,0L399,101.394V66.607l41-41V63.5c0,4.142,3.358,7.5,7.5,7.5h37.894L444.394,112z"/>
</svg>
