<?xml version="1.0" encoding="UTF-8" standalone="no"?>
<svg width="511px" height="511px" viewBox="0 0 511 511" version="1.1" xmlns="http://www.w3.org/2000/svg" xmlns:xlink="http://www.w3.org/1999/xlink">
    <!-- Generator: Sketch 39 (31667) - http://www.bohemiancoding.com/sketch -->
    <title>tasks</title>
    <desc>Created with Sketch.</desc>
    <defs></defs>
    <g id="Symbolz" stroke="none" stroke-width="1" fill="none" fill-rule="evenodd">
        <g id="Artboard-1" transform="translate(-4883.000000, -4568.000000)" fill="#000000">
            <g id="tasks" transform="translate(4883.000000, 4568.000000)">
                <g id="Group">
                    <path d="M327.5,432 L263,432 L263,303.5 C263,299.358 259.642,296 255.5,296 C251.358,296 248,299.358 248,303.5 L248,432 L183.5,432 C170.542,432 160,442.542 160,455.5 L160,487.5 C160,500.458 170.542,511 183.5,511 L327.5,511 C340.458,511 351,500.458 351,487.5 L351,455.5 C351,442.542 340.458,432 327.5,432 L327.5,432 Z M336,487.5 C336,492.187 332.187,496 327.5,496 L183.5,496 C178.813,496 175,492.187 175,487.5 L175,455.5 C175,450.813 178.813,447 183.5,447 L327.5,447 C332.187,447 336,450.813 336,455.5 L336,487.5 L336,487.5 Z" id="Shape"></path>
                    <path d="M215.5,464 L199.5,464 C195.358,464 192,467.358 192,471.5 C192,475.642 195.358,479 199.5,479 L215.5,479 C219.642,479 223,475.642 223,471.5 C223,467.358 219.642,464 215.5,464 L215.5,464 Z" id="Shape"></path>
                    <path d="M311.5,464 L247.5,464 C243.358,464 240,467.358 240,471.5 C240,475.642 243.358,479 247.5,479 L311.5,479 C315.642,479 319,475.642 319,471.5 C319,467.358 315.642,464 311.5,464 L311.5,464 Z" id="Shape"></path>
                    <path d="M487.5,352 L399.5,352 C395.751,352 392.208,352.887 389.061,354.454 L332.804,298.197 C329.876,295.268 325.127,295.268 322.198,298.197 C319.269,301.126 319.269,305.874 322.198,308.803 L378.455,365.061 C376.887,368.208 376.001,371.751 376.001,375.5 L376.001,407.5 C376.001,420.458 386.543,431 399.501,431 L487.501,431 C500.459,431 511.001,420.458 511.001,407.5 L511.001,375.5 C511,362.542 500.458,352 487.5,352 L487.5,352 Z M496,407.5 C496,412.187 492.187,416 487.5,416 L399.5,416 C394.813,416 391,412.187 391,407.5 L391,375.5 C391,370.813 394.813,367 399.5,367 L487.5,367 C492.187,367 496,370.813 496,375.5 L496,407.5 L496,407.5 Z" id="Shape"></path>
                    <path d="M423.5,384 L415.5,384 C411.358,384 408,387.358 408,391.5 C408,395.642 411.358,399 415.5,399 L423.5,399 C427.642,399 431,395.642 431,391.5 C431,387.358 427.642,384 423.5,384 L423.5,384 Z" id="Shape"></path>
                    <path d="M471.5,384 L455.5,384 C451.358,384 448,387.358 448,391.5 C448,395.642 451.358,399 455.5,399 L471.5,399 C475.642,399 479,395.642 479,391.5 C479,387.358 475.642,384 471.5,384 L471.5,384 Z" id="Shape"></path>
                    <path d="M95.5,384 L87.5,384 C83.358,384 80,387.358 80,391.5 C80,395.642 83.358,399 87.5,399 L95.5,399 C99.642,399 103,395.642 103,391.5 C103,387.358 99.642,384 95.5,384 L95.5,384 Z" id="Shape"></path>
                    <path d="M55.5,384 L39.5,384 C35.358,384 32,387.358 32,391.5 C32,395.642 35.358,399 39.5,399 L55.5,399 C59.642,399 63,395.642 63,391.5 C63,387.358 59.642,384 55.5,384 L55.5,384 Z" id="Shape"></path>
                    <path d="M188.803,308.803 C191.732,305.874 191.732,301.126 188.803,298.197 C185.874,295.268 181.125,295.268 178.197,298.197 L121.939,354.454 C118.792,352.887 115.249,352 111.501,352 L23.501,352 C10.542,352 0,362.542 0,375.5 L0,407.5 C0,420.458 10.542,431 23.5,431 L111.5,431 C124.458,431 135,420.458 135,407.5 L135,375.5 C135,371.751 134.113,368.208 132.545,365.06 L188.803,308.803 L188.803,308.803 Z M120,407.5 C120,412.187 116.187,416 111.5,416 L23.5,416 C18.813,416 15,412.187 15,407.5 L15,375.5 C15,370.813 18.813,367 23.5,367 L111.5,367 C116.187,367 120,370.813 120,375.5 L120,407.5 L120,407.5 Z" id="Shape"></path>
                    <path d="M151.5,279 L359.5,279 C372.458,279 383,268.458 383,255.5 L383,238.564 C383,221.535 372.146,206.476 355.991,201.09 L305.872,184.384 C304.918,184.066 303.945,183.954 303,184.017 L303,169.62 C313.341,158 319,143.224 319,127.5 L319,109.766 C328.29,106.628 335,97.836 335,87.5 L335,47.5 C335,21.309 313.691,0 287.5,0 L223.5,0 C212.916,0 203.943,7.033 201.011,16.672 C186.743,19.671 176,32.354 176,47.5 L176,87.5 C176,97.835 182.71,106.627 192,109.766 L192,125.153 C192,141.682 198.063,156.949 208,168.612 L208,184.019 C207.055,183.956 206.083,184.067 205.128,184.385 L155.009,201.092 C138.854,206.477 128,221.536 128,238.564 L128,255.5 C128,268.458 138.542,279 151.5,279 L151.5,279 Z M215.5,199 C219.642,199 223,195.642 223,191.5 L223,181.581 C232.01,187.23 242.437,190.637 253.552,190.971 C254.211,190.991 254.867,191 255.523,191 C267.137,191 278.265,187.899 288,182.073 L288,191.5 C288,195.642 291.358,199 295.5,199 C295.605,199 295.707,198.989 295.811,198.984 C293.857,217.481 276.527,232 255.5,232 C234.473,232 217.143,217.481 215.189,198.984 C215.293,198.989 215.395,199 215.5,199 L215.5,199 Z M191,87.5 L191,47.5 C191,38.402 198.402,31 207.5,31 C211.642,31 215,27.642 215,23.5 C215,18.813 218.813,15 223.5,15 L287.5,15 C305.42,15 320,29.579 320,47.5 L320,87.5 C320,88.942 319.636,90.3 319,91.492 L319,79.5 C319,66.542 308.458,56 295.5,56 L215.5,56 C202.542,56 192,66.542 192,79.5 L192,91.492 C191.363,90.3 191,88.942 191,87.5 L191,87.5 Z M207,79.5 C207,74.813 210.813,71 215.5,71 L295.5,71 C300.187,71 304,74.813 304,79.5 L304,127.5 C304,140.73 298.77,153.093 289.273,162.309 C279.78,171.521 267.244,176.373 254.002,175.978 C228.085,175.2 207,152.399 207,125.152 L207,79.5 L207,79.5 Z M143,238.564 C143,228.001 149.732,218.661 159.752,215.321 L200.425,201.764 C203.768,227.216 227.183,247 255.5,247 C283.817,247 307.232,227.216 310.575,201.764 L351.248,215.321 C361.268,218.661 368,228.002 368,238.564 L368,255.5 C368,260.187 364.187,264 359.5,264 L151.5,264 C146.813,264 143,260.187 143,255.5 L143,238.564 L143,238.564 Z" id="Shape"></path>
                </g>
            </g>
        </g>
    </g>
</svg>