<?xml version='1.0' encoding='iso-8859-1'?>
<svg version="1.1" xmlns="http://www.w3.org/2000/svg" viewBox="0 0 511 511" xmlns:xlink="http://www.w3.org/1999/xlink" enable-background="new 0 0 511 511">
  <g>
    <path d="m316.8,322.2c-1.39-1.4-3.33-2.2-5.3-2.2-1.97,0-3.91,0.8-5.3,2.2-1.4,1.39-2.2,3.33-2.2,5.3 0,1.97 0.8,3.91 2.2,5.3 1.39,1.4 3.32,2.2 5.3,2.2s3.91-0.8 5.3-2.2c1.4-1.39 2.2-3.33 2.2-5.3 0-1.97-0.8-3.91-2.2-5.3z"/>
    <path d="m316.8,290.2c-1.39-1.4-3.33-2.2-5.3-2.2-1.98,0-3.91,0.8-5.3,2.2-1.4,1.39-2.2,3.33-2.2,5.3 0,1.98 0.8,3.91 2.2,5.3 1.39,1.4 3.33,2.2 5.3,2.2 1.97,0 3.9-0.8 5.3-2.2 1.4-1.39 2.2-3.33 2.2-5.3 0-1.97-0.8-3.91-2.2-5.3z"/>
    <path d="m316.8,258.2c-1.39-1.4-3.32-2.2-5.3-2.2-1.97,0-3.91,0.8-5.3,2.2-1.4,1.39-2.2,3.33-2.2,5.3 0,1.98 0.8,3.91 2.2,5.3 1.39,1.4 3.33,2.2 5.3,2.2 1.97,0 3.91-0.8 5.3-2.2 1.4-1.39 2.2-3.32 2.2-5.3 0-1.97-0.8-3.91-2.2-5.3z"/>
    <path d="m316.8,226.2c-1.39-1.4-3.32-2.2-5.3-2.2s-3.91,0.8-5.3,2.2c-1.4,1.39-2.2,3.33-2.2,5.3 0,1.97 0.8,3.91 2.2,5.3 1.39,1.4 3.33,2.2 5.3,2.2 1.97,0 3.91-0.8 5.3-2.2 1.4-1.39 2.2-3.33 2.2-5.3 0-1.97-0.8-3.91-2.2-5.3z"/>
    <path d="m316.8,194.2c-1.39-1.4-3.33-2.2-5.3-2.2-1.97,0-3.91,0.8-5.3,2.2-1.4,1.39-2.2,3.33-2.2,5.3 0,1.97 0.8,3.91 2.2,5.3 1.39,1.4 3.33,2.2 5.3,2.2 1.97,0 3.91-0.8 5.3-2.2 1.4-1.39 2.2-3.33 2.2-5.3 0-1.97-0.8-3.91-2.2-5.3z"/>
    <path d="m311.5,448c-1.98,0-3.91,0.8-5.3,2.2-1.4,1.39-2.2,3.32-2.2,5.3 0,1.97 0.8,3.91 2.2,5.3 1.39,1.4 3.33,2.2 5.3,2.2 1.97,0 3.91-0.8 5.3-2.2 1.4-1.39 2.2-3.33 2.2-5.3 0-1.97-0.8-3.91-2.2-5.3-1.39-1.4-3.33-2.2-5.3-2.2z"/>
    <path d="m316.8,418.2c-1.39-1.4-3.33-2.2-5.3-2.2-1.97,0-3.91,0.8-5.3,2.2-1.4,1.39-2.2,3.33-2.2,5.3 0,1.97 0.8,3.91 2.2,5.3 1.39,1.4 3.33,2.2 5.3,2.2 1.97,0 3.91-0.8 5.3-2.2 1.4-1.39 2.2-3.33 2.2-5.3 0-1.97-0.8-3.91-2.2-5.3z"/>
    <path d="m316.8,386.2c-1.39-1.4-3.33-2.2-5.3-2.2-1.97,0-3.91,0.8-5.3,2.2-1.4,1.39-2.2,3.33-2.2,5.3 0,1.97 0.8,3.91 2.2,5.3 1.39,1.4 3.33,2.2 5.3,2.2 1.97,0 3.91-0.8 5.3-2.2 1.4-1.39 2.2-3.33 2.2-5.3 0-1.97-0.8-3.91-2.2-5.3z"/>
    <path d="m316.8,354.2c-1.39-1.4-3.33-2.2-5.3-2.2-1.97,0-3.91,0.8-5.3,2.2-1.4,1.39-2.2,3.33-2.2,5.3 0,1.97 0.8,3.91 2.2,5.3 1.39,1.4 3.33,2.2 5.3,2.2 1.97,0 3.91-0.8 5.3-2.2 1.4-1.39 2.2-3.33 2.2-5.3 0-1.97-0.8-3.91-2.2-5.3z"/>
    <path d="m412.8,322.2c-1.39-1.4-3.33-2.2-5.3-2.2-1.97,0-3.91,0.8-5.3,2.2-1.4,1.39-2.2,3.33-2.2,5.3 0,1.97 0.8,3.91 2.2,5.3 1.39,1.4 3.32,2.2 5.3,2.2s3.91-0.8 5.3-2.2c1.4-1.39 2.2-3.33 2.2-5.3 0-1.97-0.8-3.91-2.2-5.3z"/>
    <path d="m412.8,290.2c-1.39-1.4-3.33-2.2-5.3-2.2-1.97,0-3.91,0.8-5.3,2.2-1.4,1.39-2.2,3.33-2.2,5.3 0,1.97 0.8,3.91 2.2,5.3 1.39,1.4 3.33,2.2 5.3,2.2 1.97,0 3.91-0.8 5.3-2.2 1.4-1.39 2.2-3.33 2.2-5.3 0-1.97-0.8-3.91-2.2-5.3z"/>
    <path d="m412.8,258.2c-1.39-1.4-3.32-2.2-5.3-2.2s-3.91,0.8-5.3,2.2c-1.4,1.39-2.2,3.33-2.2,5.3 0,1.97 0.8,3.91 2.2,5.3 1.39,1.4 3.33,2.2 5.3,2.2 1.97,0 3.91-0.8 5.3-2.2 1.4-1.39 2.2-3.33 2.2-5.3 0-1.97-0.8-3.91-2.2-5.3z"/>
    <path d="m412.8,226.2c-1.39-1.4-3.32-2.2-5.3-2.2s-3.91,0.8-5.3,2.2c-1.4,1.39-2.2,3.33-2.2,5.3 0,1.97 0.8,3.91 2.2,5.3 1.39,1.4 3.33,2.2 5.3,2.2 1.97,0 3.91-0.8 5.3-2.2 1.4-1.39 2.2-3.33 2.2-5.3 0-1.97-0.8-3.91-2.2-5.3z"/>
    <path d="m412.8,194.2c-1.39-1.4-3.33-2.2-5.3-2.2-1.97,0-3.91,0.8-5.3,2.2-1.4,1.39-2.2,3.32-2.2,5.3s0.8,3.91 2.2,5.3c1.39,1.4 3.33,2.2 5.3,2.2 1.97,0 3.91-0.8 5.3-2.2 1.4-1.39 2.2-3.32 2.2-5.3s-0.8-3.91-2.2-5.3z"/>
    <path d="m412.8,162.2c-1.39-1.4-3.33-2.2-5.3-2.2-1.97,0-3.91,0.8-5.3,2.2-1.4,1.39-2.2,3.33-2.2,5.3 0,1.98 0.8,3.91 2.2,5.3 1.39,1.4 3.33,2.2 5.3,2.2 1.97,0 3.91-0.8 5.3-2.2 1.4-1.39 2.2-3.33 2.2-5.3 0-1.97-0.8-3.91-2.2-5.3z"/>
    <path d="m412.8,130.2c-1.39-1.4-3.33-2.2-5.3-2.2-1.97,0-3.91,0.8-5.3,2.2-1.4,1.39-2.2,3.33-2.2,5.3 0,1.98 0.8,3.91 2.2,5.3 1.39,1.4 3.33,2.2 5.3,2.2 1.98,0 3.91-0.8 5.3-2.2 1.4-1.39 2.2-3.33 2.2-5.3 0-1.97-0.8-3.91-2.2-5.3z"/>
    <path d="m407.5,448c-1.97,0-3.91,0.8-5.3,2.2-1.4,1.39-2.2,3.33-2.2,5.3 0,1.97 0.8,3.91 2.2,5.3 1.39,1.4 3.33,2.2 5.3,2.2 1.97,0 3.91-0.8 5.3-2.2 1.4-1.39 2.2-3.33 2.2-5.3 0-1.98-0.8-3.91-2.2-5.3-1.39-1.4-3.32-2.2-5.3-2.2z"/>
    <path d="m412.8,418.2c-1.39-1.4-3.33-2.2-5.3-2.2-1.97,0-3.91,0.8-5.3,2.2-1.4,1.39-2.2,3.33-2.2,5.3 0,1.97 0.8,3.91 2.2,5.3 1.39,1.4 3.33,2.2 5.3,2.2 1.97,0 3.91-0.8 5.3-2.2 1.4-1.39 2.2-3.33 2.2-5.3 0-1.97-0.8-3.9-2.2-5.3z"/>
    <path d="m412.8,386.2c-1.39-1.4-3.33-2.2-5.3-2.2-1.97,0-3.91,0.8-5.3,2.2-1.4,1.39-2.2,3.33-2.2,5.3 0,1.97 0.8,3.91 2.2,5.3 1.39,1.4 3.33,2.2 5.3,2.2 1.97,0 3.91-0.8 5.3-2.2 1.4-1.39 2.2-3.33 2.2-5.3 0-1.97-0.8-3.91-2.2-5.3z"/>
    <path d="m412.8,354.2c-1.39-1.4-3.33-2.2-5.3-2.2-1.97,0-3.91,0.8-5.3,2.2-1.4,1.39-2.2,3.33-2.2,5.3 0,1.97 0.8,3.91 2.2,5.3 1.39,1.4 3.33,2.2 5.3,2.2 1.97,0 3.91-0.8 5.3-2.2 1.4-1.39 2.2-3.33 2.2-5.3 0-1.97-0.8-3.91-2.2-5.3z"/>
    <path d="m220.8,322.2c-1.39-1.4-3.33-2.2-5.3-2.2-1.97,0-3.91,0.8-5.3,2.2-1.4,1.39-2.2,3.33-2.2,5.3 0,1.97 0.8,3.91 2.2,5.3 1.39,1.4 3.32,2.2 5.3,2.2s3.91-0.8 5.3-2.2c1.4-1.39 2.2-3.33 2.2-5.3 0-1.97-0.8-3.91-2.2-5.3z"/>
    <path d="m215.5,448c-1.98,0-3.91,0.8-5.3,2.2-1.4,1.39-2.2,3.32-2.2,5.3 0,1.97 0.8,3.91 2.2,5.3 1.39,1.4 3.33,2.2 5.3,2.2 1.97,0 3.91-0.8 5.3-2.2 1.4-1.39 2.2-3.33 2.2-5.3 0-1.97-0.8-3.91-2.2-5.3-1.39-1.4-3.33-2.2-5.3-2.2z"/>
    <path d="m220.8,418.2c-1.39-1.4-3.33-2.2-5.3-2.2-1.97,0-3.91,0.8-5.3,2.2-1.4,1.39-2.2,3.33-2.2,5.3 0,1.97 0.8,3.91 2.2,5.3 1.39,1.4 3.33,2.2 5.3,2.2 1.97,0 3.91-0.8 5.3-2.2 1.4-1.39 2.2-3.33 2.2-5.3 0-1.97-0.8-3.91-2.2-5.3z"/>
    <path d="m220.8,386.2c-1.39-1.4-3.33-2.2-5.3-2.2-1.97,0-3.91,0.8-5.3,2.2-1.4,1.39-2.2,3.33-2.2,5.3 0,1.97 0.8,3.91 2.2,5.3 1.39,1.4 3.33,2.2 5.3,2.2 1.97,0 3.91-0.8 5.3-2.2 1.4-1.39 2.2-3.33 2.2-5.3 0-1.97-0.8-3.9-2.2-5.3z"/>
    <path d="m220.8,354.2c-1.39-1.4-3.33-2.2-5.3-2.2-1.97,0-3.91,0.8-5.3,2.2-1.4,1.39-2.2,3.33-2.2,5.3 0,1.98 0.8,3.91 2.2,5.3 1.39,1.4 3.33,2.2 5.3,2.2 1.97,0 3.91-0.8 5.3-2.2 1.4-1.39 2.2-3.33 2.2-5.3 0-1.97-0.8-3.91-2.2-5.3z"/>
    <path d="m119.5,448c-1.97,0-3.91,0.8-5.3,2.2-1.4,1.39-2.2,3.33-2.2,5.3 0,1.97 0.8,3.91 2.2,5.3 1.39,1.4 3.33,2.2 5.3,2.2 1.97,0 3.91-0.8 5.3-2.2 1.4-1.39 2.2-3.33 2.2-5.3 0-1.98-0.8-3.91-2.2-5.3-1.39-1.4-3.32-2.2-5.3-2.2z"/>
    <path d="m124.8,418.2c-1.39-1.4-3.33-2.2-5.3-2.2-1.97,0-3.91,0.8-5.3,2.2-1.4,1.39-2.2,3.33-2.2,5.3 0,1.97 0.8,3.91 2.2,5.3 1.39,1.4 3.33,2.2 5.3,2.2 1.97,0 3.91-0.8 5.3-2.2 1.4-1.39 2.2-3.33 2.2-5.3 0-1.97-0.8-3.91-2.2-5.3z"/>
    <path d="m124.8,386.2c-1.39-1.4-3.33-2.2-5.3-2.2-1.97,0-3.91,0.8-5.3,2.2-1.4,1.39-2.2,3.33-2.2,5.3 0,1.97 0.8,3.91 2.2,5.3 1.39,1.4 3.33,2.2 5.3,2.2 1.97,0 3.91-0.8 5.3-2.2 1.4-1.39 2.2-3.33 2.2-5.3 0-1.97-0.8-3.91-2.2-5.3z"/>
    <path d="m124.8,354.2c-1.39-1.4-3.33-2.2-5.3-2.2-1.97,0-3.91,0.8-5.3,2.2-1.4,1.39-2.2,3.33-2.2,5.3 0,1.98 0.8,3.91 2.2,5.3 1.39,1.4 3.33,2.2 5.3,2.2 1.97,0 3.91-0.8 5.3-2.2 1.4-1.39 2.2-3.33 2.2-5.3 0-1.97-0.8-3.91-2.2-5.3z"/>
    <path d="m503.5,79c4.142,0 7.5-3.358 7.5-7.5v-63.997c0-0.248-0.013-0.496-0.037-0.744-0.01-0.106-0.031-0.21-0.045-0.315-0.019-0.137-0.036-0.275-0.063-0.411-0.024-0.122-0.058-0.24-0.088-0.36-0.029-0.117-0.055-0.235-0.09-0.351-0.036-0.118-0.08-0.231-0.121-0.347-0.041-0.116-0.08-0.232-0.127-0.346-0.045-0.108-0.098-0.212-0.147-0.317-0.055-0.116-0.106-0.233-0.167-0.347-0.055-0.103-0.118-0.2-0.177-0.3-0.066-0.11-0.128-0.222-0.2-0.329-0.075-0.112-0.158-0.217-0.239-0.324-0.066-0.088-0.127-0.179-0.198-0.264-0.314-0.383-0.665-0.734-1.048-1.047-0.083-0.069-0.172-0.128-0.257-0.192-0.11-0.083-0.218-0.168-0.332-0.244-0.104-0.069-0.211-0.129-0.317-0.193-0.104-0.062-0.206-0.127-0.313-0.185-0.108-0.058-0.219-0.107-0.329-0.159-0.112-0.053-0.221-0.108-0.336-0.156-0.107-0.044-0.216-0.08-0.324-0.119-0.122-0.044-0.243-0.091-0.369-0.129-0.107-0.032-0.216-0.056-0.325-0.083-0.129-0.033-0.256-0.069-0.387-0.095-0.122-0.024-0.245-0.038-0.367-0.056-0.12-0.018-0.237-0.04-0.359-0.052-0.216-0.021-0.432-0.03-0.648-0.033-0.031-0.001-0.06-0.005-0.09-0.005h-64c-4.142,0-7.5,3.358-7.5,7.5s3.358,7.5 7.5,7.5h45.894l-82.148,82.148-94.631,39.429c-0.018,0.008-0.034,0.017-0.052,0.025-0.157,0.067-0.311,0.143-0.463,0.221-0.07,0.035-0.142,0.067-0.21,0.104-0.143,0.079-0.281,0.167-0.42,0.255-0.072,0.046-0.147,0.088-0.216,0.135-0.116,0.08-0.226,0.169-0.338,0.255-0.084,0.065-0.172,0.127-0.253,0.195-0.085,0.072-0.165,0.152-0.247,0.228-0.1,0.092-0.202,0.182-0.296,0.279-0.063,0.065-0.121,0.136-0.182,0.204-0.106,0.117-0.212,0.233-0.309,0.356-0.053,0.067-0.101,0.139-0.152,0.208-0.097,0.131-0.193,0.262-0.281,0.399-0.012,0.018-0.025,0.034-0.036,0.052l-89.186,141.21-41.889-76.797c-0.12-0.221-0.252-0.435-0.395-0.644-0.036-0.053-0.077-0.101-0.114-0.152-0.106-0.148-0.214-0.294-0.331-0.434-0.065-0.078-0.136-0.148-0.203-0.222-0.097-0.107-0.191-0.215-0.295-0.316-0.083-0.081-0.171-0.154-0.257-0.231-0.096-0.086-0.19-0.175-0.292-0.256-0.101-0.081-0.207-0.153-0.311-0.228-0.094-0.068-0.185-0.139-0.282-0.203-0.136-0.089-0.278-0.167-0.419-0.247-0.073-0.041-0.141-0.086-0.216-0.125-0.222-0.116-0.449-0.22-0.681-0.313-0.001,0-0.002-0.001-0.002-0.001-0.024-0.01-0.048-0.015-0.071-0.024-0.205-0.079-0.412-0.152-0.622-0.213-0.132-0.039-0.265-0.065-0.397-0.097-0.103-0.024-0.205-0.052-0.308-0.072-0.154-0.029-0.309-0.047-0.463-0.067-0.086-0.011-0.172-0.026-0.258-0.034-0.154-0.014-0.306-0.017-0.459-0.021-0.091-0.003-0.182-0.009-0.273-0.008-0.142,0.001-0.284,0.012-0.425,0.021-0.104,0.007-0.207,0.01-0.311,0.021-0.131,0.014-0.259,0.037-0.389,0.058-0.112,0.018-0.225,0.033-0.337,0.056-0.129,0.027-0.255,0.063-0.382,0.097-0.108,0.029-0.217,0.053-0.325,0.087-0.155,0.048-0.305,0.107-0.456,0.166-0.076,0.029-0.153,0.053-0.228,0.085-0.463,0.196-0.906,0.438-1.323,0.723-0.018,0.012-0.033,0.026-0.051,0.038-0.183,0.128-0.362,0.262-0.534,0.406-0.062,0.052-0.118,0.109-0.178,0.163-0.122,0.109-0.244,0.217-0.358,0.335-0.072,0.074-0.137,0.153-0.206,0.229-0.094,0.105-0.191,0.207-0.279,0.318-0.076,0.095-0.143,0.195-0.214,0.293-0.072,0.1-0.148,0.196-0.215,0.3-0.086,0.132-0.162,0.27-0.239,0.407-0.043,0.076-0.091,0.149-0.132,0.227-0.115,0.222-0.22,0.448-0.313,0.68 0,0.001-0.001,0.002-0.001,0.003l-47.135,117.838-82.405,54.937v-369.986c0-4.142-3.358-7.5-7.5-7.5s-7.5,3.358-7.5,7.5v88.5h-8.5c-4.142,0-7.5,3.358-7.5,7.5s3.358,7.5 7.5,7.5h8.5v81h-8.5c-4.142,0-7.5,3.358-7.5,7.5s3.358,7.5 7.5,7.5h8.5v81h-8.5c-4.142,0-7.5,3.358-7.5,7.5s3.358,7.5 7.5,7.5h8.5v81h-8.5c-4.142,0-7.5,3.358-7.5,7.5s3.358,7.5 7.5,7.5h8.5v81h-8.5c-4.142,0-7.5,3.358-7.5,7.5s3.358,7.5 7.5,7.5h8.5v8.5c0,4.142 3.358,7.5 7.5,7.5s7.5-3.358 7.5-7.5v-8.5h81v8.5c0,4.142 3.358,7.5 7.5,7.5s7.5-3.358 7.5-7.5v-8.5h81v8.5c0,4.142 3.358,7.5 7.5,7.5s7.5-3.358 7.5-7.5v-8.5h81v8.5c0,4.142 3.358,7.5 7.5,7.5s7.5-3.358 7.5-7.5v-8.5h81v8.5c0,4.142 3.358,7.5 7.5,7.5s7.5-3.358 7.5-7.5v-8.5h88.5c4.142,0 7.5-3.358 7.5-7.5s-3.358-7.5-7.5-7.5h-472.5v-84.486l92.648-61.765c0.01-0.006 0.019-0.014 0.028-0.02 0.268-0.18 0.516-0.378 0.753-0.584 0.068-0.059 0.134-0.12 0.199-0.182 0.221-0.207 0.43-0.422 0.621-0.651 0.019-0.023 0.041-0.044 0.06-0.067 0.215-0.263 0.405-0.542 0.58-0.828 0.036-0.06 0.072-0.12 0.107-0.181 0.174-0.302 0.331-0.613 0.46-0.934 0.002-0.005 0.006-0.01 0.008-0.016l42.083-105.206 40.37,74.012c0.003,0.006 0.007,0.011 0.01,0.016 0.152,0.278 0.326,0.546 0.514,0.804 0.041,0.057 0.085,0.11 0.127,0.165 0.149,0.193 0.308,0.379 0.477,0.559 0.056,0.06 0.11,0.121 0.168,0.178 0.209,0.208 0.428,0.407 0.665,0.592 0.049,0.038 0.102,0.07 0.151,0.107 0.152,0.113 0.303,0.226 0.466,0.328 0.034,0.021 0.07,0.035 0.104,0.056 0.184,0.112 0.375,0.208 0.567,0.304 0.124,0.062 0.246,0.13 0.372,0.185 0.171,0.073 0.347,0.13 0.523,0.19 0.151,0.052 0.3,0.112 0.452,0.154 0.162,0.044 0.327,0.07 0.492,0.104 0.166,0.034 0.33,0.077 0.497,0.1 0.271,0.037 0.546,0.05 0.821,0.057 0.057,0.001 0.114,0.012 0.171,0.012 0.001,0 0.002,0 0.004,0 0.004,0 0.007,0.001 0.011,0.001 0.939,0 1.886-0.182 2.796-0.55 0.268-0.108 0.531-0.228 0.786-0.367 0.001,0 0.002-0.001 0.002-0.001 0.247-0.135 0.481-0.283 0.706-0.44 0.08-0.056 0.155-0.118 0.232-0.177 0.158-0.12 0.312-0.243 0.459-0.374 0.073-0.065 0.145-0.133 0.216-0.201 0.16-0.154 0.311-0.314 0.455-0.48 0.046-0.053 0.094-0.103 0.139-0.158 0.192-0.234 0.369-0.476 0.53-0.729 0.004-0.007 0.01-0.013 0.014-0.02l94.733-149.995 93.72-39.05c0.022-0.009 0.044-0.019 0.067-0.028l.024-.01c0.03-0.012 0.057-0.028 0.086-0.041 0.195-0.084 0.387-0.173 0.576-0.275 0.083-0.044 0.159-0.095 0.24-0.142 0.13-0.076 0.26-0.15 0.386-0.234 0.129-0.086 0.249-0.18 0.372-0.273 0.071-0.055 0.145-0.105 0.215-0.162 0.166-0.136 0.323-0.281 0.476-0.43 0.022-0.022 0.047-0.04 0.069-0.062l.018-.018c0.017-0.017 0.035-0.034 0.052-0.052l83.122-83.129v45.894c0,4.142 3.358,7.5 7.5,7.5z"/>
  </g>
</svg>
