<?xml version="1.0" encoding="UTF-8" standalone="no"?>
<svg width="135px" height="22px" viewBox="0 0 135 22" version="1.1" xmlns="http://www.w3.org/2000/svg" xmlns:xlink="http://www.w3.org/1999/xlink">
    <!-- Generator: Sketch 39 (31667) - http://www.bohemiancoding.com/sketch -->
    <title>Group 2</title>
    <desc>Created with Sketch.</desc>
    <defs>
        <ellipse id="path-1" cx="8.94999981" cy="8.36999989" rx="8.69999981" ry="8.36999989"></ellipse>
        <mask id="mask-2" maskContentUnits="userSpaceOnUse" maskUnits="objectBoundingBox" x="0" y="0" width="17.3999996" height="16.7399998" fill="white">
            <use xlink:href="#path-1"></use>
        </mask>
        <path d="M2.05011752,0.326495163 C2.16084367,-0.0566796877 2.34288373,-0.0479676712 2.45109236,0.326495163 L3.33323699,3.3792127 C3.44396313,3.76238756 3.19823348,4.07301215 2.80520766,4.07301215 L1.69600222,4.07301215 C1.29365353,4.07301215 1.05976426,3.75367554 1.16797289,3.3792127 L2.05011752,0.326495163 Z" id="path-3"></path>
        <mask id="mask-4" maskContentUnits="userSpaceOnUse" maskUnits="objectBoundingBox" x="0" y="0" width="2.21830543" height="4.03064051" fill="white">
            <use xlink:href="#path-3"></use>
        </mask>
        <ellipse id="path-5" cx="5.92850958" cy="2.21378674" rx="1.28324997" ry="1.28499997"></ellipse>
        <mask id="mask-6" maskContentUnits="userSpaceOnUse" maskUnits="objectBoundingBox" x="0" y="0" width="2.56649994" height="2.56999993" fill="white">
            <use xlink:href="#path-5"></use>
        </mask>
    </defs>
    <g id="Logo" stroke="none" stroke-width="1" fill="none" fill-rule="evenodd">
        <g id="Artboard" transform="translate(-40.000000, -44.000000)">
            <g id="Group-2" transform="translate(40.000000, 44.000000)">
                <path d="M14.1253047,14.2218766 C14.3357969,14.0469551 14.37917,13.7253277 14.2142229,13.4922563 L13.0290575,11.8176095 C12.8676735,11.5895729 12.528228,11.5085589 12.2877434,11.6240195 C12.2877434,11.6240195 9.92999962,12.8486757 8.39999962,12.8486757 C5.90999962,12.8486757 4.5,10.872903 4.5,8.41290302 L4.5,8.35290302 C4.5,5.98290302 6.12,3.97290302 8.4,3.97290302 C10.02,3.97290302 11.8938429,5.17748686 11.8938429,5.17748686 C12.1324357,5.31781127 12.4689274,5.24941837 12.6290538,5.04556052 L14.203234,3.04146314 C14.370687,2.82827782 14.3326058,2.51587392 14.1113983,2.34744348 C14.1113983,2.34744348 11.4299996,0.0592555612 8.39999962,0.0592555612 C3.47999962,0.0592555612 0,3.82290302 0,8.41290302 L0,8.47290302 C0,13.062903 3.25999924,16.76268 8.39999962,16.76268 C11.2999992,16.76268 14.1253047,14.2218766 14.1253047,14.2218766 Z M38.88,15.9240279 C38.88,16.199549 39.0999383,16.422903 39.3854226,16.422903 L42.9345774,16.422903 C43.2137146,16.422903 43.44,16.2011715 43.44,15.9149361 L43.44,7.45290302 C43.44,5.29290302 44.49,4.18290302 46.2,4.18290302 C47.91,4.18290302 48.87,5.29290302 48.87,7.45290302 L48.87,15.9149361 C48.87,16.1954785 49.0899383,16.422903 49.3754226,16.422903 L52.9245774,16.422903 C53.2037146,16.422903 53.43,16.2011715 53.43,15.9149361 L53.43,7.45290302 C53.43,5.29290302 54.48,4.18290302 56.19,4.18290302 C57.9,4.18290302 58.86,5.29290302 58.86,7.45290302 L58.86,15.9149361 C58.86,16.1954785 59.0799383,16.422903 59.3654226,16.422903 L62.9145774,16.422903 C63.1937146,16.422903 63.42,16.2042222 63.42,15.9179132 L63.42,5.95290302 C63.42,2.08290302 61.38,0.0429030221 57.99,0.0429030221 C55.8,0.0429030221 54.12,0.942903022 52.71,2.59290302 C51.87,0.972903022 50.28,0.0429030221 48.18,0.0429030221 C48.034706,0.0429030221 47.8342957,0.0334471225 47.6962107,0.042903022 C45.638912,0.183784523 44.4239573,1.35781512 43.44,2.62290302 L43.44,0.84890892 C43.44,0.569449579 43.2200617,0.342903022 42.9345774,0.342903022 L39.3854226,0.342903022 C39.1062854,0.342903022 38.88,0.570214958 38.88,0.841778192 L38.88,15.9240279 Z M68.13,20.7273597 C68.13,21.0010407 68.3499383,21.222903 68.6354226,21.222903 L72.1845774,21.222903 C72.4637146,21.222903 72.69,20.9933277 72.69,20.726672 L72.69,14.322903 C73.77,15.612903 75.27,16.722903 77.7,16.722903 C81.51,16.722903 85.02,13.782903 85.02,8.41290302 C85.02,2.98290302 81.45,0.0429030221 77.7,0.0429030221 C75.33,0.0429030221 73.8,1.15290302 72.69,2.65290302 L72.69,0.844138618 C72.69,0.567313842 72.4700617,0.342903022 72.1845774,0.342903022 L68.6354226,0.342903022 C68.3562854,0.342903022 68.13,0.563267446 68.13,0.838446298 L68.13,20.7273597 Z M76.9846743,12.852903 C74.8084291,12.852903 73,11.082903 73,8.41290302 L73,8.35290302 C73,5.68290302 74.8084291,3.91290302 76.9846743,3.91290302 C79.1609195,3.91290302 81,5.68290302 81,8.35290302 L81,8.41290302 C81,11.112903 79.1609195,12.852903 76.9846743,12.852903 L76.9846743,12.852903 Z M98.55,14.682903 L98.55,15.9289431 C98.55,16.2017496 98.7747554,16.422903 99.0558831,16.422903 L102.454117,16.422903 C102.733508,16.422903 102.96,16.1922725 102.96,15.9212817 L102.96,7.09290302 C102.96,4.93290302 102.42,3.16290302 101.22,1.96290302 C100.08,0.822903022 98.2057945,0 95.7157945,0 C92.9857945,0 90.0152805,1.26889185 90.0152805,1.26889185 C89.7583132,1.37051841 89.6178982,1.6601712 89.7085121,1.93678211 L90.5314879,4.44902393 C90.6190317,4.71626297 90.9091272,4.8656468 91.168937,4.78837907 C91.168937,4.78837907 92.6411222,4.31736383 93.872846,4.15237547 C94.2744943,4.09857503 94.7021318,4.06290302 95.13,4.06290302 C97.41,4.06290302 98.58,5.11290302 98.58,7.00290302 L98.58,7.27290302 C97.44,6.88290302 96.27,6.61290302 94.65,6.61290302 C90.84,6.61290302 88.5413647,8.24432396 88.5413647,11.754324 L88.5413647,11.814324 C88.5413647,14.994324 90.6786806,16.4229031 93.7086806,16.4229031 C95.9286806,16.4229031 97.44,15.912903 98.55,14.682903 Z M94.4818866,13.8000002 C93.0343855,13.8000002 92.0299969,13.0680853 92.0299969,11.8177306 L92.0299969,11.7567377 C92.0299969,10.2929078 93.2116305,9.5 95.1317851,9.5 C96.2247961,9.5 97.2291847,9.74397164 97.9972465,10.1099291 L97.9972465,10.9333334 C97.9972465,12.6106384 96.5792862,13.8000002 94.4818866,13.8000002 L94.4818866,13.8000002 Z M119.43,11.532903 L119.43,11.472903 C119.43,8.53290302 116.82,7.45290302 114.57,6.70290302 C112.83,6.10290302 111.3,5.68290302 111.3,4.78290302 L111.3,4.72290302 C111.3,4.09290302 111.87,3.61290302 112.98,3.61290302 C114.15,3.61290302 116.900664,4.91680422 116.900664,4.91680422 C117.13778,5.0251066 117.430213,4.92319384 117.568096,4.66238571 C117.568096,4.66238571 117.843944,4.13949782 117.89427,4.04839141 C118.262382,3.38198136 118.824734,2.39471479 118.824734,2.39471479 C118.960191,2.15623173 118.869162,1.86243013 118.619106,1.7411927 C118.619106,1.7411927 115.44,0.0941386861 113.4,0.0941386861 C110.16,0.0941386861 107.19,1.93290302 107.19,5.20290302 L107.19,5.26290302 C107.19,8.38290302 109.74,9.43290302 111.99,10.092903 C113.76,10.632903 115.32,10.962903 115.32,11.952903 L115.32,12.012903 C115.32,12.732903 114.038892,13.2418228 112.718892,13.2418228 C111.218892,13.2418228 108.751,11.563892 108.751,11.563892 C108.518488,11.4142289 108.216319,11.4891691 108.083013,11.7193161 L106.996272,13.5955335 C106.859865,13.8310349 106.944255,14.1481291 107.172723,14.2913241 C107.172723,14.2913241 109.903845,16.1263175 112.069986,16.3851905 C112.292169,16.4117434 112.509577,16.4263817 112.718892,16.4263817 C116.198892,16.4263817 119.43,15.102903 119.43,11.532903 Z M134.389398,11.4387643 L134.389398,11.3787643 C134.389398,8.43876434 131.779398,7.35876434 129.529398,6.60876434 C127.789398,6.00876434 126.259398,5.58876434 126.259398,4.68876434 L126.259398,4.62876434 C126.259398,3.99876434 126.829398,3.51876434 127.939398,3.51876434 C129.109398,3.51876434 131.860061,4.82266553 131.860061,4.82266553 C132.097177,4.93096791 132.389611,4.82905515 132.527493,4.56824702 C132.527493,4.56824702 132.803342,4.04535914 132.853667,3.95425272 C133.22178,3.28784267 133.784132,2.3005761 133.784132,2.3005761 C133.919588,2.06209305 133.82856,1.76829145 133.578504,1.64705401 C133.578504,1.64705401 130.399398,0 128.359398,0 C125.119398,0 122.149398,1.83876434 122.149398,5.10876434 L122.149398,5.16876434 C122.149398,8.28876434 124.699398,9.33876434 126.949398,9.99876434 C128.719398,10.5387643 130.279398,10.8687643 130.279398,11.8587643 L130.279398,11.9187643 C130.279398,12.6387643 128.99829,13.1476841 127.67829,13.1476841 C126.17829,13.1476841 123.710398,11.4697533 123.710398,11.4697533 C123.477886,11.3200902 123.175716,11.3950304 123.042411,11.6251774 L121.955669,13.5013948 C121.819262,13.7368962 121.903652,14.0539904 122.13212,14.1971854 C122.13212,14.1971854 124.863243,16.0321788 127.029383,16.2910519 C127.251567,16.3176047 127.468975,16.332243 127.67829,16.332243 C131.15829,16.332243 134.389398,15.0087643 134.389398,11.4387643 Z" id="compass" fill="#354B5E"></path>
                <g id="Logo" transform="translate(17.000000, 0.000000)">
                    <use id="Oval-10" stroke="#354B5E" mask="url(#mask-2)" stroke-width="3" xlink:href="#path-1"></use>
                    <g id="Group" transform="translate(8.915409, 8.244305) rotate(-45.000000) translate(-8.915409, -8.244305) translate(2.915409, 6.244305)">
                        <path d="M9.31998457,0.345961531 C9.43072198,-0.03721332 9.61278056,-0.0285013036 9.72100019,0.345961531 L10.6032345,3.39867907 C10.713972,3.78185392 10.4682173,4.09247851 10.0751515,4.09247851 L8.96583325,4.09247851 C8.56344364,4.09247851 8.32953058,3.77314191 8.43775022,3.39867907 L9.31998457,0.345961531 Z" id="Triangle-1" fill="#354B5E" transform="translate(9.520611, 2.077158) rotate(90.000000) translate(-9.520611, -2.077158) "></path>
                        <use id="Triangle-1" stroke="#354B5E" mask="url(#mask-4)" transform="translate(2.250723, 2.057692) scale(-1, -1) rotate(90.000000) translate(-2.250723, -2.057692) " xlink:href="#path-3"></use>
                        <use id="Oval-2" stroke="#354B5E" mask="url(#mask-6)" stroke-width="4" xlink:href="#path-5"></use>
                    </g>
                    <rect id="Rectangle-9" fill="#354B5E" x="8.63999939" y="2.82999992" width="0.75" height="1.25" rx="0.375"></rect>
                    <rect id="Rectangle-9-Copy-2" fill="#354B5E" transform="translate(13.824999, 8.404999) rotate(90.000000) translate(-13.824999, -8.404999) " x="13.4499989" y="7.77999878" width="0.75" height="1.25" rx="0.375"></rect>
                    <rect id="Rectangle-9-Copy-2" fill="#354B5E" transform="translate(4.025000, 8.404999) rotate(90.000000) translate(-4.025000, -8.404999) " x="3.64999962" y="7.77999878" width="0.75" height="1.25" rx="0.375"></rect>
                    <rect id="Rectangle-9-Copy" fill="#354B5E" x="8.63999939" y="12.5799999" width="0.75" height="1.25" rx="0.375"></rect>
                </g>
            </g>
        </g>
    </g>
</svg>